0
SECTION
2
HEADER
9
$INSUNITS
70
4
9
$ACADVER
1
AC1014
9
$HANDSEED
5
FFFF
0
ENDSEC
0
SECTION
2
TABLES
0
TABLE
2
VPORT
5
8
100
AcDbSymbolTable
0
ENDTAB
0
TABLE
2
LTYPE
5
5
100
AcDbSymbolTable
0
LTYPE
5
14
100
AcDbSymbolTableRecord
100
AcDbLinetypeTableRecord
2
BYBLOCK
70
0
0
LTYPE
5
15
100
AcDbSymbolTableRecord
100
AcDbLinetypeTableRecord
2
BYLAYER
70
0
0
ENDTAB
0
TABLE
2
LAYER
5
2
100
AcDbSymbolTable
70
2
0
LAYER
5
50
100
AcDbSymbolTableRecord
100
AcDbLayerTableRecord
2
0
70
0
6
CONTINUOUS
0
ENDTAB
0
TABLE
2
STYLE
5
3
100
AcDbSymbolTable
70
1
0
STYLE
5
11
100
AcDbSymbolTableRecord
100
AcDbTextStyleTableRecord
2
STANDARD
70
0
0
ENDTAB
0
TABLE
2
VIEW
5
6
100
AcDbSymbolTable
70
0
0
ENDTAB
0
TABLE
2
UCS
5
7
100
AcDbSymbolTable
70
0
0
ENDTAB
0
TABLE
2
APPID
5
9
100
AcDbSymbolTable
70
2
0
APPID
5
12
100
AcDbSymbolTableRecord
100
AcDbRegAppTableRecord
2
ACAD
70
0
0
ENDTAB
0
TABLE
2
DIMSTYLE
5
A
100
AcDbSymbolTable
70
1
0
ENDTAB
0
TABLE
2
BLOCK_RECORD
5
1
100
AcDbSymbolTable
70
1
0
BLOCK_RECORD
5
1F
100
AcDbSymbolTableRecord
100
AcDbBlockTableRecord
2
*MODEL_SPACE
0
BLOCK_RECORD
5
1B
100
AcDbSymbolTableRecord
100
AcDbBlockTableRecord
2
*PAPER_SPACE
0
ENDTAB
0
ENDSEC
0
SECTION
2
BLOCKS
0
BLOCK
5
20
100
AcDbEntity
100
AcDbBlockBegin
2
*MODEL_SPACE
0
ENDBLK
5
21
100
AcDbEntity
100
AcDbBlockEnd
0
BLOCK
5
1C
100
AcDbEntity
100
AcDbBlockBegin
2
*PAPER_SPACE
0
ENDBLK
5
1D
100
AcDbEntity
100
AcDbBlockEnd
0
ENDSEC
0
SECTION
2
ENTITIES
0
ARC
5
100
100
AcDbEntity
8
0
100
AcDbCircle
10
-807.9815014215477
20
-73.100260186460403
30
7.1054273576010019e-14
40
1.5999999999999659
210
0
220
-0
230
1
100
AcDbArc
50
90
51
269.99999999999591
0
LINE
5
101
100
AcDbEntity
8
0
100
AcDbLine
10
-807.9815014215477
20
-71.500260186460437
30
7.1054273576010019e-14
11
-805.98150142154759
21
-71.500260186460395
31
4.5474559229319311e-06
0
ARC
5
102
100
AcDbEntity
8
0
100
AcDbCircle
10
-805.98150142154759
20
-73.100260186460403
30
7.1054273576010019e-14
40
1.6000000000000192
210
1.9721522630524825e-27
220
2.2204460492502866e-14
230
1
100
AcDbArc
50
-90.000000000008143
51
90
0
LINE
5
103
100
AcDbEntity
8
0
100
AcDbLine
10
-805.98150142154782
20
-74.700260186460412
30
1.0658141036401503e-13
11
-807.98150142154782
21
-74.700260186460383
31
1.0658141036401503e-13
0
ARC
5
104
100
AcDbEntity
8
0
100
AcDbCircle
10
-807.9815014215468
20
-53.300260186460378
30
7.1054273576010019e-14
40
1.5999999999999659
210
0
220
-0
230
1
100
AcDbArc
50
90
51
269.99999999999591
0
LINE
5
105
100
AcDbEntity
8
0
100
AcDbLine
10
-807.9815014215468
20
-51.700260186460412
30
7.1054273576010019e-14
11
-805.9815014215468
21
-51.700260186460341
31
4.5474559229319311e-06
0
ARC
5
106
100
AcDbEntity
8
0
100
AcDbCircle
10
-805.9815014215468
20
-53.300260186460306
30
7.1054273576010019e-14
40
1.6000000000000014
210
0
220
0
230
1
100
AcDbArc
50
-90.000000000004079
51
90
0
LINE
5
107
100
AcDbEntity
8
0
100
AcDbLine
10
-805.98150142154691
20
-54.900260186460308
30
7.1054273576010019e-14
11
-807.98150142154691
21
-54.900260186460343
31
7.1054273576010019e-14
0
LWPOLYLINE
5
108
100
AcDbEntity
8
0
100
AcDbPolyline
90
4
70
1
43
0.0
10
-805.98150142153941
20
174.29973981354036
10
-807.9815014215385
20
174.29973981354007
42
-0.99999999999999989
10
-807.98150142153963
20
177.49973981354
10
-805.98150142153963
20
177.49973981354043
42
-0.99999999999999989
0
LWPOLYLINE
5
109
100
AcDbEntity
8
0
100
AcDbPolyline
90
4
70
1
43
0.0
10
-805.9815014215385
20
194.0997398135404
10
-807.98150142153816
20
194.09973981354025
42
-0.99999999999999989
10
-807.98150142153872
20
197.29973981354019
10
-805.9815014215385
20
197.29973981354047
42
-0.99999999999999989
0
LWPOLYLINE
5
110
100
AcDbEntity
8
0
100
AcDbPolyline
90
29
70
1
43
0.0
10
-626.8814670818158
20
-157.54339265824339
42
0.41421356237310281
10
-624.8814670818158
20
-159.54339265824336
10
-591.68146160777383
20
-159.54339265824271
42
0.41421356237310025
10
-589.68146160777383
20
-157.54339265824268
10
-589.68146160777451
20
-105.54339504242229
42
-0.41421356237310025
10
-587.68146160777451
20
-103.54339504242226
10
-493.88144683842393
20
-103.54339504242232
42
0.41421356237310281
10
-491.88144683842387
20
-101.54339504242228
10
-491.88144683842484
20
-54.543392896650573
42
-0.41421356237310025
10
-489.88144683842478
20
-52.543392896650545
10
-473.88147206641452
20
-52.543392896650545
42
0.41421356237309503
10
-472.88147206641446
20
-51.543392896650566
10
-472.88147206641446
20
-5.5433928966505164
42
0.41421356237309503
10
-473.88147206641452
20
-4.5433928966505022
10
-489.88144683842575
20
-4.5433928966504666
42
-0.41421356237307944
10
-491.8814468384258
20
-2.5433928966504737
10
-491.88144683842779
20
95.456607103349597
42
-0.41421356237311063
10
-489.88144683842768
20
97.456607103349626
10
-473.88147206641435
20
97.456607103349569
42
0.41421356237307422
10
-472.88147206641446
20
98.456607103349711
10
-472.8814720664144
20
144.45660710334974
42
0.41421356237309503
10
-473.88147206641452
20
145.45660710334968
10
-489.88144683842881
20
145.4566071033496
42
-0.41421356237307422
10
-491.88144683842881
20
147.45660710334957
10
-491.88144683843115
20
264.45660734176136
42
0.41421356237309503
10
-493.88144683843115
20
266.45660734176136
10
-816.88146708182444
20
266.45660734175499
10
-816.8814670818158
20
-152.54339154090133
10
-626.8814670818158
20
-152.54339154089823
0
CIRCLE
5
111
100
AcDbEntity
8
0
100
AcDbCircle
10
-739.58146708182721
20
249.05054350071094
30
-7.1054273576010019e-14
40
1.5999999999999659
210
3.7470893968566104e-30
220
0
230
1
0
CIRCLE
5
112
100
AcDbEntity
8
0
100
AcDbCircle
10
-654.58146708182676
20
249.05054580660038
30
-7.1054273576010019e-14
40
1.5999999999999659
210
3.7470893968566104e-30
220
0
230
1
0
CIRCLE
5
113
100
AcDbEntity
8
0
100
AcDbCircle
10
-807.58146708182676
20
249.05054580660033
30
-7.1054273576010019e-14
40
1.5999999999999659
210
3.7470893968566104e-30
220
0
230
1
0
CIRCLE
5
114
100
AcDbEntity
8
0
100
AcDbCircle
10
-586.58146708182687
20
249.0505435007108
30
-7.1054273576010019e-14
40
1.5999999999999659
210
3.7470893968566104e-30
220
0
230
1
0
CIRCLE
5
115
100
AcDbEntity
8
0
100
AcDbCircle
10
562.28146708183021
20
-9.0470047663227149
30
-3.3487320680738616e-12
40
1.4999999999999858
210
4.1864659886916421e-15
220
0
230
-1
0
CIRCLE
5
116
100
AcDbEntity
8
0
100
AcDbCircle
10
562.28146708182999
20
60.952995233677392
30
-3.2776777944978504e-12
40
1.4999999999999858
210
4.1864659886916421e-15
220
0
230
-1
0
CIRCLE
5
117
100
AcDbEntity
8
0
100
AcDbCircle
10
562.28146708182987
20
130.9529952336774
30
-3.4908406152258801e-12
40
1.4999999999999858
210
4.1864659886916421e-15
220
0
230
-1
0
CIRCLE
5
118
100
AcDbEntity
8
0
100
AcDbCircle
10
562.28146708182953
20
200.95299523367746
30
-2.5316079219497436e-12
40
1.4999999999999858
210
4.1864659886916421e-15
220
0
230
-1
0
CIRCLE
5
119
100
AcDbEntity
8
0
100
AcDbCircle
10
562.28146708183021
20
-79.047004766322829
30
-3.4553134784378771e-12
40
1.4999999999999858
210
4.1864659886916421e-15
220
0
230
-1
0
CIRCLE
5
120
100
AcDbEntity
8
0
100
AcDbCircle
10
-481.88145945242127
20
-28.543392896650488
30
-5.3290705182007514e-12
40
2.6999999999999957
210
9.1524012895407811e-14
220
4.3853809472693754e-15
230
1
0
CIRCLE
5
121
100
AcDbEntity
8
0
100
AcDbCircle
10
-481.88145945242127
20
121.45660710334963
30
-6.0040861171728466e-12
40
2.6999999999999957
210
9.1524012895407811e-14
220
4.3853809472693754e-15
230
1
0
CIRCLE
5
122
100
AcDbEntity
8
0
100
AcDbCircle
10
562.28146708183033
20
-66.79340203133863
30
-3.4553134784378771e-12
40
1.4999999999999858
210
4.1864659886916421e-15
220
0
230
-1
0
CIRCLE
5
123
100
AcDbEntity
8
0
100
AcDbCircle
10
562.28146708182953
20
213.20659796866155
30
-2.4605536483737336e-12
40
1.4999999999999858
210
4.1864659886916421e-15
220
0
230
-1
0
CIRCLE
5
124
100
AcDbEntity
8
0
100
AcDbCircle
10
562.28146708182976
20
143.20659796866155
30
-3.5263677520138851e-12
40
1.4999999999999858
210
4.1864659886916421e-15
220
0
230
-1
0
CIRCLE
5
125
100
AcDbEntity
8
0
100
AcDbCircle
10
562.28146708182999
20
73.206597968661555
30
-3.2421506577098458e-12
40
1.4999999999999858
210
4.1864659886916421e-15
220
0
230
-1
0
CIRCLE
5
126
100
AcDbEntity
8
0
100
AcDbCircle
10
562.2814670818301
20
3.2065979686615265
30
-3.3132049312858566e-12
40
1.4999999999999858
210
4.1864659886916421e-15
220
0
230
-1
0
CIRCLE
5
127
100
AcDbEntity
8
0
100
AcDbCircle
10
-673.25278742536238
20
-139.34339265824738
30
3.1974423109204508e-13
40
1.600000000000108
210
-1.8179902028237491e-15
220
0
230
1
0
CIRCLE
5
128
100
AcDbEntity
8
0
100
AcDbCircle
10
-766.33857386299769
20
-139.34339265824738
30
1.4210854715202004e-13
40
1.5999999999999659
210
-1.8179902028237526e-15
220
0
230
1
0
ENDSEC
0
SECTION
2
OBJECTS
0
DICTIONARY
5
C
100
AcDbDictionary
3
ACAD_GROUP
350
D
3
ACAD_MLINESTYLE
350
17
0
DICTIONARY
5
D
100
AcDbDictionary
0
DICTIONARY
5
1A
330
C
100
AcDbDictionary
0
DICTIONARY
5
17
100
AcDbDictionary
0
ENDSEC
0
EOF
