0
SECTION
2
HEADER
9
$INSUNITS
70
4
9
$ACADVER
1
AC1014
9
$HANDSEED
5
FFFF
0
ENDSEC
0
SECTION
2
TABLES
0
TABLE
2
VPORT
5
8
100
AcDbSymbolTable
0
ENDTAB
0
TABLE
2
LTYPE
5
5
100
AcDbSymbolTable
0
LTYPE
5
14
100
AcDbSymbolTableRecord
100
AcDbLinetypeTableRecord
2
BYBLOCK
70
0
0
LTYPE
5
15
100
AcDbSymbolTableRecord
100
AcDbLinetypeTableRecord
2
BYLAYER
70
0
0
ENDTAB
0
TABLE
2
LAYER
5
2
100
AcDbSymbolTable
70
2
0
LAYER
5
50
100
AcDbSymbolTableRecord
100
AcDbLayerTableRecord
2
0
70
0
6
CONTINUOUS
0
ENDTAB
0
TABLE
2
STYLE
5
3
100
AcDbSymbolTable
70
1
0
STYLE
5
11
100
AcDbSymbolTableRecord
100
AcDbTextStyleTableRecord
2
STANDARD
70
0
0
ENDTAB
0
TABLE
2
VIEW
5
6
100
AcDbSymbolTable
70
0
0
ENDTAB
0
TABLE
2
UCS
5
7
100
AcDbSymbolTable
70
0
0
ENDTAB
0
TABLE
2
APPID
5
9
100
AcDbSymbolTable
70
2
0
APPID
5
12
100
AcDbSymbolTableRecord
100
AcDbRegAppTableRecord
2
ACAD
70
0
0
ENDTAB
0
TABLE
2
DIMSTYLE
5
A
100
AcDbSymbolTable
70
1
0
ENDTAB
0
TABLE
2
BLOCK_RECORD
5
1
100
AcDbSymbolTable
70
1
0
BLOCK_RECORD
5
1F
100
AcDbSymbolTableRecord
100
AcDbBlockTableRecord
2
*MODEL_SPACE
0
BLOCK_RECORD
5
1B
100
AcDbSymbolTableRecord
100
AcDbBlockTableRecord
2
*PAPER_SPACE
0
ENDTAB
0
ENDSEC
0
SECTION
2
BLOCKS
0
BLOCK
5
20
100
AcDbEntity
100
AcDbBlockBegin
2
*MODEL_SPACE
0
ENDBLK
5
21
100
AcDbEntity
100
AcDbBlockEnd
0
BLOCK
5
1C
100
AcDbEntity
100
AcDbBlockBegin
2
*PAPER_SPACE
0
ENDBLK
5
1D
100
AcDbEntity
100
AcDbBlockEnd
0
ENDSEC
0
SECTION
2
ENTITIES
0
LWPOLYLINE
5
100
100
AcDbEntity
8
0
100
AcDbPolyline
90
4
70
1
43
0.0
10
-396.9687740786739
20
749.38145945237397
10
-396.96877407867362
20
752.38145945237409
42
-0.99999999999999989
10
-393.76877407867369
20
752.38145945237375
10
-393.7687740786734
20
749.38145945237363
42
-0.99999999999999989
0
LWPOLYLINE
5
101
100
AcDbEntity
8
0
100
AcDbPolyline
90
4
70
1
43
0.0
10
-393.76877407867113
20
783.38145945237375
42
0.99999999999999989
10
-396.96877407867106
20
783.38145945237386
10
-396.96877407867078
20
780.38145945237397
42
0.99999999999999989
10
-393.76877407867141
20
780.38145945237375
0
ARC
5
102
100
AcDbEntity
8
0
100
AcDbCircle
10
-542.86877295732768
20
793.88145904945247
30
-1.2434497875801753e-13
40
2.0000000000001705
210
0
220
-0
230
1
100
AcDbArc
50
89.999999999996746
51
180
0
LINE
5
103
100
AcDbEntity
8
0
100
AcDbLine
10
-544.86877295732756
20
793.88145904945247
30
-1.2434497875801753e-13
11
-544.86877295732472
21
591.68147978592924
31
-8.8817841970012523e-15
0
ARC
5
104
100
AcDbEntity
8
0
100
AcDbCircle
10
-542.86877295732484
20
591.68147978592924
30
-1.7763568394002505e-14
40
1.9999999999999574
210
4.4408920985007208e-15
220
0
230
1
100
AcDbArc
50
180
51
270
0
LINE
5
105
100
AcDbEntity
8
0
100
AcDbLine
10
-542.86877295732484
20
589.68147978592935
30
-1.7763568394002505e-14
11
-499.86877295788975
21
589.68147978592935
31
-8.8817841970012523e-15
0
ARC
5
106
100
AcDbEntity
8
0
100
AcDbCircle
10
-499.8687729578898
20
587.68147978592935
30
-3.5527136788005009e-14
40
2.0000000000000284
210
0
220
0
230
1
100
AcDbArc
50
0
51
89.99999999999838
0
LINE
5
107
100
AcDbEntity
8
0
100
AcDbLine
10
-497.86877295788975
20
587.68147978592935
30
-3.5527136788005009e-14
11
-497.86877295789105
21
560.88145904945247
31
0
0
ARC
5
108
100
AcDbEntity
8
0
100
AcDbCircle
10
-499.8687729578898
20
560.88145904945247
30
-1.7763568394002505e-14
40
1.9999999999999574
210
0
220
0
230
1
100
AcDbArc
50
-90
51
0
0
LINE
5
109
100
AcDbEntity
8
0
100
AcDbLine
10
-499.8687729578898
20
558.88145904945247
30
-1.7763568394002505e-14
11
-501.86877295788832
21
558.88145904945236
31
3.5527136788005009e-14
0
ARC
5
110
100
AcDbEntity
8
0
100
AcDbCircle
10
-501.86877295788832
20
556.88145904945247
30
1.7763568394002505e-14
40
1.9999999999998863
210
0
220
-8.8817841970017572e-15
230
1
100
AcDbArc
50
90
51
180
0
LINE
5
111
100
AcDbEntity
8
0
100
AcDbLine
10
-503.86877295788838
20
556.88145904945247
30
1.7763568394002505e-14
11
-503.86877295788838
21
472.88145904945156
31
8.8817841970012523e-15
0
ARC
5
112
100
AcDbEntity
8
0
100
AcDbCircle
10
-505.86877295788832
20
472.88145904945156
30
4.4408920985006262e-14
40
2.0000000000000284
210
0
220
0
230
1
100
AcDbArc
50
-90.000000000001634
51
0
0
LINE
5
113
100
AcDbEntity
8
0
100
AcDbLine
10
-505.86877295788838
20
470.88145904945151
30
4.4408920985006262e-14
11
-542.86877295732336
21
470.88145904945151
31
1.7763568394002505e-14
0
ARC
5
114
100
AcDbEntity
8
0
100
AcDbCircle
10
-542.86877295732336
20
468.88145904945145
30
2.6645352591003757e-14
40
2.0000000000000284
210
0
220
4.4408920985005631e-15
230
1
100
AcDbArc
50
90
51
180
0
LINE
5
115
100
AcDbEntity
8
0
100
AcDbLine
10
-544.86877295732336
20
468.88145904945145
30
2.6645352591003757e-14
11
-544.86877295732302
21
443.88145904945213
31
1.7763568394002505e-14
0
ARC
5
116
100
AcDbEntity
8
0
100
AcDbCircle
10
-542.86877295732302
20
443.88145904945219
30
3.5527136788005009e-14
40
1.9999999999999574
210
-8.8817841970014417e-15
220
-3.1554436208841817e-28
230
1
100
AcDbArc
50
180
51
270
0
LINE
5
117
100
AcDbEntity
8
0
100
AcDbLine
10
-542.86877295732302
20
441.88145904945213
30
3.5527136788005009e-14
11
-494.868772957891
21
441.88145904945213
31
1.7763568394002505e-14
0
ARC
5
118
100
AcDbEntity
8
0
100
AcDbCircle
10
-494.868772957891
20
439.88145904945213
30
5.3290705182007514e-14
40
1.9999999999999574
210
4.4408920985007208e-15
220
0
230
1
100
AcDbArc
50
0
51
90
0
LINE
5
119
100
AcDbEntity
8
0
100
AcDbLine
10
-492.86877295789105
20
439.88145904945213
30
4.4408920985006262e-14
11
-492.86877295789105
21
428.88145904945219
31
1.7763568394002505e-14
0
ARC
5
120
100
AcDbEntity
8
0
100
AcDbCircle
10
-494.868772957891
20
428.88145904945219
30
5.3290705182007514e-14
40
2.0000000000000284
210
0
220
0
230
1
100
AcDbArc
50
-90
51
0
0
LINE
5
121
100
AcDbEntity
8
0
100
AcDbLine
10
-494.868772957891
20
426.88145904945213
30
5.3290705182007514e-14
11
-542.86877295732279
21
426.88145904945213
31
2.6645352591003757e-14
0
ARC
5
122
100
AcDbEntity
8
0
100
AcDbCircle
10
-542.86877295732279
20
424.88145904945219
30
4.4408920985006262e-14
40
1.9999999999999574
210
0
220
8.8817841970014417e-15
230
1
100
AcDbArc
50
90
51
180
0
LINE
5
123
100
AcDbEntity
8
0
100
AcDbLine
10
-544.86877295732268
20
424.88145904945213
30
4.4408920985006262e-14
11
-544.86877295732154
21
339.88144789934506
31
2.6645352591003757e-14
0
ARC
5
124
100
AcDbEntity
8
0
100
AcDbCircle
10
-542.86877295732154
20
339.88144789934506
30
7.1054273576010019e-14
40
2.0000000000000284
210
-2.2204460492502815e-14
220
0
230
1
100
AcDbArc
50
180
51
270
0
LINE
5
125
100
AcDbEntity
8
0
100
AcDbLine
10
-542.86877295732154
20
337.88144789934506
30
7.1054273576010019e-14
11
-448.26204432763109
21
337.88144789934512
31
1.7763568394002505e-14
0
ARC
5
126
100
AcDbEntity
8
0
100
AcDbCircle
10
-448.26204432763109
20
339.88144789934506
30
1.7763568394002505e-14
40
1.9999999999999574
210
0
220
0
230
1
100
AcDbArc
50
270
51
345.52248781407928
0
ARC
5
127
100
AcDbEntity
8
0
100
AcDbCircle
10
-444.38906098142348
20
338.88144789934563
30
2.6645352591003757e-14
40
1.9999999999999574
210
0
220
-0
230
1
100
AcDbArc
50
90
51
165.52248781407806
0
LINE
5
128
100
AcDbEntity
8
0
100
AcDbLine
10
-444.38906098142348
20
340.88144789934563
30
2.6645352591003757e-14
11
-402.88906098142104
21
340.88144789934563
31
8.8817841970012523e-15
0
ARC
5
129
100
AcDbEntity
8
0
100
AcDbCircle
10
-402.88906098142104
20
342.88144789934563
30
9.7699626167013776e-14
40
2.0000000000000284
210
0
220
-4.4408920985005631e-14
230
1
100
AcDbArc
50
-90
51
0
0
LINE
5
130
100
AcDbEntity
8
0
100
AcDbLine
10
-400.88906098142104
20
342.88144789934563
30
9.7699626167013776e-14
11
-400.8890609814211
21
366.88144789934472
31
1.7763568394002505e-14
0
ARC
5
131
100
AcDbEntity
8
0
100
AcDbCircle
10
-398.8890609814211
20
366.88144789934472
30
9.7699626167013776e-14
40
1.9999999999999574
210
0
220
-0
230
1
100
AcDbArc
50
90
51
180
0
LINE
5
132
100
AcDbEntity
8
0
100
AcDbLine
10
-398.8890609814211
20
368.88144789934466
30
9.7699626167013776e-14
11
-398.86906102834536
21
368.88144789934472
31
8.8817841970012523e-15
0
ARC
5
133
100
AcDbEntity
8
0
100
AcDbCircle
10
-398.86906102834536
20
370.88144789934466
30
4.8849813083506888e-13
40
1.9999999999999574
210
0
220
-2.3980817331903891e-13
230
1
100
AcDbArc
50
-90
51
1.2074182697257333e-06
0
LINE
5
134
100
AcDbEntity
8
0
100
AcDbLine
10
-396.86906102834536
20
370.88144794626891
30
4.8849813083506888e-13
11
-396.86906287849189
21
662.8814590489776
31
0
0
LINE
5
135
100
AcDbEntity
8
0
100
AcDbLine
10
-396.86906287849189
20
662.8814590489776
30
0
11
-396.86906787928626
21
712.88145904897931
31
-8.8817841970012523e-15
0
ARC
5
136
100
AcDbEntity
8
0
100
AcDbCircle
10
-398.86906787928632
20
712.88145904897931
30
3.6415315207705135e-13
40
2.0000000000000284
210
1.8651746813702365e-13
220
0
230
1
100
AcDbArc
50
0
51
90
0
ARC
5
137
100
AcDbEntity
8
0
100
AcDbCircle
10
-398.86906787928757
20
716.88145904897942
30
3.6415315207705135e-13
40
2.0000000000000284
210
0
220
0
230
1
100
AcDbArc
50
180
51
270.00000000003581
0
LINE
5
138
100
AcDbEntity
8
0
100
AcDbLine
10
-400.86906787928763
20
716.88145904897942
30
3.6415315207705135e-13
11
-400.86906787928751
21
737.38145945237363
31
-3.5527136788005009e-14
0
ARC
5
139
100
AcDbEntity
8
0
100
AcDbCircle
10
-395.86906787928751
20
737.38145945237363
30
3.907985046680551e-13
40
5
210
0
220
5.3290705182007514e-15
230
1
100
AcDbArc
50
90
51
180
0
LINE
5
140
100
AcDbEntity
8
0
100
AcDbLine
10
-395.86906787928751
20
742.38145945237363
30
3.6415315207705135e-13
11
-394.8687740786736
21
742.38145945237363
31
3.5570224188319344e-06
0
ARC
5
141
100
AcDbEntity
8
0
100
AcDbCircle
10
-394.8687740786736
20
747.38145945218457
30
0.00053169046199510301
40
5.0000000000012648
210
0
220
7.1140440383014921e-07
230
0.99999999999974709
100
AcDbArc
50
-90
51
0
0
LINE
5
142
100
AcDbEntity
8
0
100
AcDbLine
10
-389.8687740786736
20
747.38145945237363
30
4.1744385725905886e-13
11
-389.8687740786736
21
753.1845209956748
31
3.5570127199235912e-06
0
ARC
5
143
100
AcDbEntity
8
0
100
AcDbCircle
10
-394.86877407857378
20
753.18452099567492
30
0.00028091061994759754
40
5.0000000000012648
210
-7.1140246582483743e-07
220
0
230
0.99999999999974709
100
AcDbArc
50
0
51
44.41530859720271
0
ARC
5
144
100
AcDbEntity
8
0
100
AcDbCircle
10
-379.8687740786724
20
767.88145945237261
30
3.557013474875248e-06
40
16.000000000000107
210
-3.9650822308038166e-16
220
3.8849713014588905e-16
230
1
100
AcDbArc
50
135.58469140280272
51
224.41530859718949
0
ARC
5
145
100
AcDbEntity
8
0
100
AcDbCircle
10
-394.86877407862039
20
782.57839790887601
30
0.00059027914542032376
40
5.0000000000011049
210
-5.081447262965369e-07
220
4.9787811796515006e-07
230
0.99999999999974709
100
AcDbArc
50
-44.415308597189359
51
2.9116059788306864e-05
0
LINE
5
146
100
AcDbEntity
8
0
100
AcDbLine
10
-389.86877407867132
20
782.57839790907269
30
4.0856207306205761e-13
11
-389.86877407867087
21
799.58145440216811
31
3.5570044865096406e-06
0
ARC
5
147
100
AcDbEntity
8
0
100
AcDbCircle
10
-393.56877407867103
20
799.58145440216811
30
3.5561622007569743e-06
40
3.7000000000001876
210
2.1604339938650601e-12
220
0
230
1
100
AcDbArc
50
0
51
89.999999999999119
0
LINE
5
148
100
AcDbEntity
8
0
100
AcDbLine
10
-393.56877407867097
20
803.28145440216827
30
3.5570135459295216e-06
11
-405.86877333829767
21
803.28145440216849
31
3.55701356369309e-06
0
ARC
5
149
100
AcDbEntity
8
0
100
AcDbCircle
10
-405.86877333829767
20
799.58145440216845
30
3.55701356369309e-06
40
3.7000000000000455
210
0
220
-0
230
1
100
AcDbArc
50
90
51
180
0
LINE
5
150
100
AcDbEntity
8
0
100
AcDbLine
10
-409.56877333829777
20
799.58145440216845
30
3.55701356369309e-06
11
-409.56877333829766
21
792.88145904897817
31
3.5570135459295216e-06
0
LINE
5
151
100
AcDbEntity
8
0
100
AcDbLine
10
-409.56877333829766
20
792.88145904897817
30
3.5570135459295216e-06
11
-444.57958596193123
21
792.88145904897817
31
-6.2172489379008766e-14
0
ARC
5
152
100
AcDbEntity
8
0
100
AcDbCircle
10
-444.57958596193123
20
794.88145904897817
30
1.9539925233402755e-13
40
1.9999999999999829
210
0
220
0
230
1
100
AcDbArc
50
194.47751217891008
51
270
0
ARC
5
153
100
AcDbEntity
8
0
100
AcDbCircle
10
-448.4525693082611
20
793.88145904945259
30
0
40
1.9999999999999829
210
-9.4597256271876352e-14
220
-2.4424906530166327e-14
230
1
100
AcDbArc
50
14.477512178913257
51
90
0
LINE
5
154
100
AcDbEntity
8
0
100
AcDbLine
10
-448.4525693082611
20
795.88145904945259
30
0
11
-542.86877295732756
21
795.88145904945259
31
-1.2434497875801753e-13
0
CIRCLE
5
155
100
AcDbEntity
8
0
100
AcDbCircle
10
-401.86877333829869
20
798.48145440217513
30
3.5570135459295216e-06
40
1.5999999999999659
210
-8.3266726846879542e-17
220
5.3926032933748009e-33
230
1
0
CIRCLE
5
156
100
AcDbEntity
8
0
100
AcDbCircle
10
-534.66877295732775
20
754.38143578880295
30
-4.7961634663806763e-13
40
1.7000000000000171
210
-6.1617377866696456e-15
220
-4.0774767440446919e-38
230
1
0
CIRCLE
5
157
100
AcDbEntity
8
0
100
AcDbCircle
10
-534.86877295732768
20
612.88145904945122
30
3.3750779948604759e-13
40
2.6999999999999602
210
5.6806411426653919e-15
220
3.759113398759809e-38
230
1
0
CIRCLE
5
158
100
AcDbEntity
8
0
100
AcDbCircle
10
-534.86877295732302
20
390.88144789934574
30
9.7699626167013776e-14
40
2.7000000000000313
210
9.4368957093137399e-16
220
6.2447795820933306e-39
230
1
0
ENDSEC
0
SECTION
2
OBJECTS
0
DICTIONARY
5
C
100
AcDbDictionary
3
ACAD_GROUP
350
D
3
ACAD_MLINESTYLE
350
17
0
DICTIONARY
5
D
100
AcDbDictionary
0
DICTIONARY
5
1A
330
C
100
AcDbDictionary
0
DICTIONARY
5
17
100
AcDbDictionary
0
ENDSEC
0
EOF
