0
SECTION
2
HEADER
9
$INSUNITS
70
4
9
$ACADVER
1
AC1014
9
$HANDSEED
5
FFFF
0
ENDSEC
0
SECTION
2
TABLES
0
TABLE
2
VPORT
5
8
100
AcDbSymbolTable
0
ENDTAB
0
TABLE
2
LTYPE
5
5
100
AcDbSymbolTable
0
LTYPE
5
14
100
AcDbSymbolTableRecord
100
AcDbLinetypeTableRecord
2
BYBLOCK
70
0
0
LTYPE
5
15
100
AcDbSymbolTableRecord
100
AcDbLinetypeTableRecord
2
BYLAYER
70
0
0
ENDTAB
0
TABLE
2
LAYER
5
2
100
AcDbSymbolTable
70
2
0
LAYER
5
50
100
AcDbSymbolTableRecord
100
AcDbLayerTableRecord
2
0
70
0
6
CONTINUOUS
0
ENDTAB
0
TABLE
2
STYLE
5
3
100
AcDbSymbolTable
70
1
0
STYLE
5
11
100
AcDbSymbolTableRecord
100
AcDbTextStyleTableRecord
2
STANDARD
70
0
0
ENDTAB
0
TABLE
2
VIEW
5
6
100
AcDbSymbolTable
70
0
0
ENDTAB
0
TABLE
2
UCS
5
7
100
AcDbSymbolTable
70
0
0
ENDTAB
0
TABLE
2
APPID
5
9
100
AcDbSymbolTable
70
2
0
APPID
5
12
100
AcDbSymbolTableRecord
100
AcDbRegAppTableRecord
2
ACAD
70
0
0
ENDTAB
0
TABLE
2
DIMSTYLE
5
A
100
AcDbSymbolTable
70
1
0
ENDTAB
0
TABLE
2
BLOCK_RECORD
5
1
100
AcDbSymbolTable
70
1
0
BLOCK_RECORD
5
1F
100
AcDbSymbolTableRecord
100
AcDbBlockTableRecord
2
*MODEL_SPACE
0
BLOCK_RECORD
5
1B
100
AcDbSymbolTableRecord
100
AcDbBlockTableRecord
2
*PAPER_SPACE
0
ENDTAB
0
ENDSEC
0
SECTION
2
BLOCKS
0
BLOCK
5
20
100
AcDbEntity
100
AcDbBlockBegin
2
*MODEL_SPACE
0
ENDBLK
5
21
100
AcDbEntity
100
AcDbBlockEnd
0
BLOCK
5
1C
100
AcDbEntity
100
AcDbBlockBegin
2
*PAPER_SPACE
0
ENDBLK
5
1D
100
AcDbEntity
100
AcDbBlockEnd
0
ENDSEC
0
SECTION
2
ENTITIES
0
ARC
5
100
100
AcDbEntity
8
0
100
AcDbCircle
10
-360.86846872628888
20
370.88144359226357
30
3.557014016664084e-06
40
2.0000000000000289
210
-4.4408920985005607e-15
220
1.0419274836158823e-22
230
1
100
AcDbArc
50
179.99999879258175
51
270
0
LINE
5
101
100
AcDbEntity
8
0
100
AcDbLine
10
-360.86846872628888
20
368.88144359226362
30
3.5570140255458682e-06
11
-354.8484687732132
21
368.88144359226362
31
3.5570135370477374e-06
0
ARC
5
102
100
AcDbEntity
8
0
100
AcDbCircle
10
-354.8484687732132
20
366.88144359226357
30
3.5570136258655793e-06
40
1.9999999999999574
210
0
220
0
230
1
100
AcDbArc
50
0
51
90
0
LINE
5
103
100
AcDbEntity
8
0
100
AcDbLine
10
-352.8484687732132
20
366.88144359226357
30
3.5570136258655793e-06
11
-352.8484687732132
21
342.88144359226453
31
3.5570135459295216e-06
0
ARC
5
104
100
AcDbEntity
8
0
100
AcDbCircle
10
-350.8484687732132
20
342.88144359226459
30
3.5570136258655793e-06
40
2.0000000000000284
210
-3.9968028886505067e-14
220
-1.4199496293977809e-27
230
1
100
AcDbArc
50
180
51
270
0
LINE
5
105
100
AcDbEntity
8
0
100
AcDbLine
10
-350.8484687732132
20
340.88144359226453
30
3.5570136258655793e-06
11
-315.34846877321093
21
340.88144359226453
31
3.5570135459295216e-06
0
ARC
5
106
100
AcDbEntity
8
0
100
AcDbCircle
10
-315.34846877321093
20
338.88144359226453
30
3.5570135459295216e-06
40
2.0000000000000071
210
0
220
-0
230
1
100
AcDbArc
50
14.4775121859247
51
90
0
ARC
5
107
100
AcDbEntity
8
0
100
AcDbCircle
10
-311.47548542700338
20
339.88144359226408
30
3.5570135459295216e-06
40
2.0000000000000235
210
0
220
0
230
1
100
AcDbArc
50
194.47751218592154
51
270
0
LINE
5
108
100
AcDbEntity
8
0
100
AcDbLine
10
-311.47548542700338
20
337.88144359226408
30
3.5570135459295216e-06
11
-216.86875679731315
21
337.88144359226413
31
3.5570135548113058e-06
0
ARC
5
109
100
AcDbEntity
8
0
100
AcDbCircle
10
-216.86875679731315
20
339.88144359226408
30
3.5570135992202268e-06
40
1.9999999999999574
210
0
220
-2.2204460492503604e-14
230
1
100
AcDbArc
50
-90
51
0
0
LINE
5
110
100
AcDbEntity
8
0
100
AcDbLine
10
-214.86875679731313
20
339.88144359226408
30
3.5570135992202268e-06
11
-214.86875679731199
21
424.88145474237109
31
3.5570135459295216e-06
0
ARC
5
111
100
AcDbEntity
8
0
100
AcDbCircle
10
-216.86875679731196
20
424.88145474237115
30
3.5570135725748742e-06
40
1.9999999999999574
210
1.3322676295502162e-14
220
-4.7331654313262726e-28
230
1
100
AcDbArc
50
0
51
90
0
LINE
5
112
100
AcDbEntity
8
0
100
AcDbLine
10
-216.86875679731196
20
426.88145474237109
30
3.5570135725748742e-06
11
-264.86875679674358
21
426.88145474237109
31
3.5570135459295216e-06
0
ARC
5
113
100
AcDbEntity
8
0
100
AcDbCircle
10
-264.86875679674358
20
428.88145474237115
30
3.5570135814566584e-06
40
1.9999999999999574
210
0
220
0
230
1
100
AcDbArc
50
180
51
270
0
LINE
5
114
100
AcDbEntity
8
0
100
AcDbLine
10
-266.86875679674353
20
428.88145474237103
30
3.5570135814566584e-06
11
-266.86875679674353
21
439.88145474237109
31
3.5570135370477374e-06
0
ARC
5
115
100
AcDbEntity
8
0
100
AcDbCircle
10
-264.86875679674358
20
439.88145474237109
30
3.5570135814566584e-06
40
1.9999999999999574
210
0
220
-0
230
1
100
AcDbArc
50
90
51
180
0
LINE
5
116
100
AcDbEntity
8
0
100
AcDbLine
10
-264.86875679674358
20
441.88145474237103
30
3.5570135814566584e-06
11
-216.86875679731168
21
441.88145474237103
31
3.5570135459295216e-06
0
ARC
5
117
100
AcDbEntity
8
0
100
AcDbCircle
10
-216.8687567973117
20
443.88145474237103
30
3.55701356369309e-06
40
2.0000000000000284
210
1.5777218104419788e-28
220
-8.8817841970011261e-15
230
1
100
AcDbArc
50
-89.99999999999919
51
0
0
LINE
5
118
100
AcDbEntity
8
0
100
AcDbLine
10
-214.8687567973117
20
443.88145474237103
30
3.55701356369309e-06
11
-214.86875679731133
21
468.88145474237035
31
3.5570135370477374e-06
0
ARC
5
119
100
AcDbEntity
8
0
100
AcDbCircle
10
-216.86875679731133
20
468.88145474237035
30
3.5570135548113058e-06
40
1.9999999999999929
210
8.8817841970012839e-15
220
0
230
1
100
AcDbArc
50
0
51
90.000000000001634
0
LINE
5
120
100
AcDbEntity
8
0
100
AcDbLine
10
-216.86875679731139
20
470.88145474237035
30
3.5570135548113058e-06
11
-253.86875679674625
21
470.88145474237035
31
3.5570135370477374e-06
0
ARC
5
121
100
AcDbEntity
8
0
100
AcDbCircle
10
-253.86875679674625
20
472.88145474237041
30
3.5570135725748742e-06
40
2.0000000000000284
210
0
220
0
230
1
100
AcDbArc
50
180
51
270
0
LINE
5
122
100
AcDbEntity
8
0
100
AcDbLine
10
-255.86875679674625
20
472.88145474237041
30
3.5570135725748742e-06
11
-255.868756796745
21
556.88145474237126
31
3.55701356369309e-06
0
ARC
5
123
100
AcDbEntity
8
0
100
AcDbCircle
10
-257.8687567967462
20
556.88145474237126
30
3.5570135459295216e-06
40
2.0000000000012363
210
-8.8817841969957619e-15
220
0
230
1
100
AcDbArc
50
0
51
90
0
LINE
5
124
100
AcDbEntity
8
0
100
AcDbLine
10
-257.8687567967462
20
558.88145474237126
30
3.5570135459295216e-06
11
-259.86875679674483
21
558.88145474237103
31
3.55701356369309e-06
0
ARC
5
125
100
AcDbEntity
8
0
100
AcDbCircle
10
-259.86875679674483
20
560.88145474237126
30
3.5570135104023848e-06
40
1.9999999999999574
210
0
220
0
230
1
100
AcDbArc
50
180
51
270
0
LINE
5
126
100
AcDbEntity
8
0
100
AcDbLine
10
-261.86875679674478
20
560.88145474237126
30
3.5570135104023848e-06
11
-261.86875679674353
21
587.6814752042493
31
3.5570135015206006e-06
0
ARC
5
127
100
AcDbEntity
8
0
100
AcDbCircle
10
-259.86875679674483
20
587.6814752042493
30
3.557013474875248e-06
40
1.9999999999999574
210
0
220
-0
230
1
100
AcDbArc
50
90
51
180
0
LINE
5
128
100
AcDbEntity
8
0
100
AcDbLine
10
-259.86875679674483
20
589.6814752042493
30
3.557013474875248e-06
11
-216.86875679730989
21
589.68147520424941
31
3.5570135015206006e-06
0
ARC
5
129
100
AcDbEntity
8
0
100
AcDbCircle
10
-216.86875679730991
20
591.68147520424918
30
3.5570134926388164e-06
40
1.9999999999998863
210
-7.8886090522110149e-29
220
4.4408920985008786e-15
230
1
100
AcDbArc
50
-89.99999999999919
51
0
0
LINE
5
130
100
AcDbEntity
8
0
100
AcDbLine
10
-214.86875679730991
20
591.68147520424918
30
3.5570134926388164e-06
11
-214.86875679730736
21
793.88145474237103
31
3.5570134837570322e-06
0
ARC
5
131
100
AcDbEntity
8
0
100
AcDbCircle
10
-216.86875679730713
20
793.88145474237126
30
3.5570134038209744e-06
40
1.9999999999997442
210
-3.9968028886510747e-14
220
2.8398992587963689e-27
230
1
100
AcDbArc
50
0
51
90
0
LINE
5
132
100
AcDbEntity
8
0
100
AcDbLine
10
-216.86875679730713
20
795.88145474237103
30
3.5570134038209744e-06
11
-311.2849604463733
21
795.8814547423699
31
3.5570134659934638e-06
0
ARC
5
133
100
AcDbEntity
8
0
100
AcDbCircle
10
-311.2849604463733
20
793.88145474237126
30
3.5570135281659532e-06
40
1.9999999999987494
210
0
220
3.1086244689523821e-14
230
1
100
AcDbArc
50
90
51
165.52248782108992
0
ARC
5
134
100
AcDbEntity
8
0
100
AcDbCircle
10
-315.15794379270318
20
794.88145474189673
30
3.5570137235652055e-06
40
2.0000000000000284
210
0
220
0
230
1
100
AcDbArc
50
270
51
345.5224878210899
0
LINE
5
135
100
AcDbEntity
8
0
100
AcDbLine
10
-315.15794379270318
20
792.88145474189673
30
3.5570137235652055e-06
11
-350.16875641633669
21
792.88145474189662
31
7.1140270740954747e-06
0
LINE
5
136
100
AcDbEntity
8
0
100
AcDbLine
10
-350.16875641633669
20
792.88145474189662
30
7.1140270740954747e-06
11
-350.16875641633652
21
799.58145009508689
31
7.1140270740954747e-06
0
ARC
5
137
100
AcDbEntity
8
0
100
AcDbCircle
10
-353.86875641633657
20
799.58145009508689
30
7.1140270918590431e-06
40
3.7000000000000455
210
4.8009644308114292e-15
220
0
230
1
100
AcDbArc
50
0
51
90
0
LINE
5
138
100
AcDbEntity
8
0
100
AcDbLine
10
-353.86875641633657
20
803.28145009508694
30
7.1140270918590431e-06
11
-366.16875567596338
21
803.28145009508694
31
7.1140270740954747e-06
0
ARC
5
139
100
AcDbEntity
8
0
100
AcDbCircle
10
-366.16875567596321
20
799.58145009508655
30
7.1140260082813711e-06
40
3.7000000000003297
210
1.1063644543638225e-26
220
-2.8805786584866362e-13
230
1
100
AcDbArc
50
90.000000000002643
51
180
0
LINE
5
140
100
AcDbEntity
8
0
100
AcDbLine
10
-369.86875567596343
20
799.58145009508667
30
7.1140180146755938e-06
11
-369.86875567596286
21
782.57839360199114
31
7.1140180146755938e-06
0
ARC
5
141
100
AcDbEntity
8
0
100
AcDbCircle
10
-364.86875567587322
20
782.57839360199137
30
-0.00025601091840526274
40
5.0000000000011937
210
7.114008209184142e-07
220
2.0219227420694331e-20
230
0.99999999999974709
100
AcDbArc
50
180
51
224.41530859721095
0
ARC
5
142
100
AcDbEntity
8
0
100
AcDbCircle
10
-379.86875567596189
20
767.88145514529106
30
7.1140270030412012e-06
40
15.999999999999934
210
3.9650822308044941e-16
220
-3.8849713014582851e-16
230
1
100
AcDbArc
50
-44.415308597187774
51
44.415308597198873
0
ARC
5
143
100
AcDbEntity
8
0
100
AcDbCircle
10
-364.86875567591539
20
753.1845166884093
30
-0.00055684320831820883
40
5.000000000001311
210
5.0814472502774931e-07
220
-4.9787811672187753e-07
230
0.99999999999974709
100
AcDbArc
50
135.58469140281565
51
180.00002911605978
0
LINE
5
144
100
AcDbEntity
8
0
100
AcDbLine
10
-369.86875567596064
20
753.18451668859325
30
3.5570139367280262e-06
11
-369.86875567596059
21
747.38145514529219
31
7.1140314528150839e-06
0
ARC
5
145
100
AcDbEntity
8
0
100
AcDbCircle
10
-364.86875567587094
20
747.38145514529242
30
-0.00025601189772268601
40
5.0000000000011937
210
7.1140350499359854e-07
220
0
230
0.99999999999974709
100
AcDbArc
50
180
51
270
0
LINE
5
146
100
AcDbEntity
8
0
100
AcDbLine
10
-364.86875567596064
20
742.38145514529219
30
3.557013927846242e-06
11
-363.86846187534672
21
742.38145514529242
31
7.1140359469978875e-06
0
ARC
5
147
100
AcDbEntity
8
0
100
AcDbCircle
10
-363.86846187534672
20
737.38145514529242
30
3.5570139189644578e-06
40
5
210
0
220
0
230
1
100
AcDbArc
50
0
51
90
0
LINE
5
148
100
AcDbEntity
8
0
100
AcDbLine
10
-358.86846187534672
20
737.38145514529242
30
3.5570139189644578e-06
11
-358.86846187534672
21
716.88145474189798
31
3.5570134926388164e-06
0
ARC
5
149
100
AcDbEntity
8
0
100
AcDbCircle
10
-360.86846187534667
20
716.8814547418981
30
3.5570138923191053e-06
40
2.0000000000001705
210
0
220
0
230
1
100
AcDbArc
50
269.99999999996254
51
360
0
ARC
5
150
100
AcDbEntity
8
0
100
AcDbCircle
10
-360.86846187534798
20
712.8814547418981
30
3.5570138923191053e-06
40
1.9999999999998863
210
0
220
-0
230
1
100
AcDbArc
50
90
51
180
0
LINE
5
151
100
AcDbEntity
8
0
100
AcDbLine
10
-362.86846187534798
20
712.8814547418981
30
3.5570138923191053e-06
11
-362.86846187534798
21
662.88145474189662
31
3.5570135459295216e-06
0
LINE
5
152
100
AcDbEntity
8
0
100
AcDbLine
10
-362.86846187534798
20
662.88145474189662
30
3.5570135459295216e-06
11
-362.86846872628894
21
370.88144363918781
31
3.5570140077822998e-06
0
LWPOLYLINE
5
153
100
AcDbEntity
8
0
100
AcDbPolyline
90
4
70
1
43
0.0
10
-362.76875567596323
20
783.38145514529242
42
0.99999999999999989
10
-365.96875567596317
20
783.38145514529231
10
-365.96875567596283
20
780.38145514529219
42
0.99999999999999989
10
-362.76875567596346
20
780.38145514529242
0
LWPOLYLINE
5
154
100
AcDbEntity
8
0
100
AcDbPolyline
90
4
70
1
43
0.0
10
-362.76875567596073
20
752.38145514529253
10
-362.76875567596096
20
749.38145514529253
42
-0.99999999999999989
10
-365.96875567596032
20
749.38145514529219
10
-365.96875567596067
20
752.38145514529219
42
-0.99999999999999989
0
CIRCLE
5
155
100
AcDbEntity
8
0
100
AcDbCircle
10
224.86875679731162
20
390.8814435922647
30
-3.5570138380718919e-06
40
2.7000000000000313
210
9.4368962302271386e-16
220
-3.4625184038481017e-28
230
-1
0
CIRCLE
5
156
100
AcDbEntity
8
0
100
AcDbCircle
10
224.86875679730701
20
612.8814547423699
30
-3.5570151430724759e-06
40
2.6999999999999602
210
5.6806411947567213e-15
220
-3.4608395546661637e-28
230
-1
0
CIRCLE
5
157
100
AcDbEntity
8
0
100
AcDbCircle
10
225.06875679730686
20
754.38143148172139
30
-3.5570116617349547e-06
40
1.7000000000000171
210
-6.1617377345782902e-15
220
-3.4650366776210086e-28
230
-1
0
CIRCLE
5
158
100
AcDbEntity
8
0
100
AcDbCircle
10
357.8687564163356
20
798.48145009509358
30
-7.1140270442969327e-06
40
1.5999999999999659
210
-8.3266674755537406e-17
220
-3.462936299142786e-28
230
-1
0
ENDSEC
0
SECTION
2
OBJECTS
0
DICTIONARY
5
C
100
AcDbDictionary
3
ACAD_GROUP
350
D
3
ACAD_MLINESTYLE
350
17
0
DICTIONARY
5
D
100
AcDbDictionary
0
DICTIONARY
5
1A
330
C
100
AcDbDictionary
0
DICTIONARY
5
17
100
AcDbDictionary
0
ENDSEC
0
EOF
