0
SECTION
2
HEADER
9
$INSUNITS
70
4
9
$ACADVER
1
AC1014
9
$HANDSEED
5
FFFF
0
ENDSEC
0
SECTION
2
TABLES
0
TABLE
2
VPORT
5
8
100
AcDbSymbolTable
0
ENDTAB
0
TABLE
2
LTYPE
5
5
100
AcDbSymbolTable
0
LTYPE
5
14
100
AcDbSymbolTableRecord
100
AcDbLinetypeTableRecord
2
BYBLOCK
70
0
0
LTYPE
5
15
100
AcDbSymbolTableRecord
100
AcDbLinetypeTableRecord
2
BYLAYER
70
0
0
ENDTAB
0
TABLE
2
LAYER
5
2
100
AcDbSymbolTable
70
2
0
LAYER
5
50
100
AcDbSymbolTableRecord
100
AcDbLayerTableRecord
2
0
70
0
6
CONTINUOUS
0
ENDTAB
0
TABLE
2
STYLE
5
3
100
AcDbSymbolTable
70
1
0
STYLE
5
11
100
AcDbSymbolTableRecord
100
AcDbTextStyleTableRecord
2
STANDARD
70
0
0
ENDTAB
0
TABLE
2
VIEW
5
6
100
AcDbSymbolTable
70
0
0
ENDTAB
0
TABLE
2
UCS
5
7
100
AcDbSymbolTable
70
0
0
ENDTAB
0
TABLE
2
APPID
5
9
100
AcDbSymbolTable
70
2
0
APPID
5
12
100
AcDbSymbolTableRecord
100
AcDbRegAppTableRecord
2
ACAD
70
0
0
ENDTAB
0
TABLE
2
DIMSTYLE
5
A
100
AcDbSymbolTable
70
1
0
ENDTAB
0
TABLE
2
BLOCK_RECORD
5
1
100
AcDbSymbolTable
70
1
0
BLOCK_RECORD
5
1F
100
AcDbSymbolTableRecord
100
AcDbBlockTableRecord
2
*MODEL_SPACE
0
BLOCK_RECORD
5
1B
100
AcDbSymbolTableRecord
100
AcDbBlockTableRecord
2
*PAPER_SPACE
0
ENDTAB
0
ENDSEC
0
SECTION
2
BLOCKS
0
BLOCK
5
20
100
AcDbEntity
100
AcDbBlockBegin
2
*MODEL_SPACE
0
ENDBLK
5
21
100
AcDbEntity
100
AcDbBlockEnd
0
BLOCK
5
1C
100
AcDbEntity
100
AcDbBlockBegin
2
*PAPER_SPACE
0
ENDBLK
5
1D
100
AcDbEntity
100
AcDbBlockEnd
0
ENDSEC
0
SECTION
2
ENTITIES
0
LINE
5
100
100
AcDbEntity
8
0
100
AcDbLine
10
359.46875712874805
20
-147.54341459270961
30
1.2613959299301314e-05
11
359.468757128748
21
-121.54341459270945
31
1.2613959299301314e-05
0
ARC
5
101
100
AcDbEntity
8
0
100
AcDbCircle
10
361.46875712874794
20
-121.54341459270947
30
1.2613959299301314e-05
40
1.9999999999999929
210
0
220
-0
230
1
100
AcDbArc
50
90
51
180
0
LINE
5
102
100
AcDbEntity
8
0
100
AcDbLine
10
361.46875712874794
20
-119.54341459270948
30
1.2613959299301314e-05
11
398.26875712874715
21
-119.54341459270935
31
1.2613959299301314e-05
0
ARC
5
103
100
AcDbEntity
8
0
100
AcDbCircle
10
398.26875712874715
20
-121.54341459270937
30
1.2613959299301314e-05
40
2.0000000000000284
210
0
220
-0
230
1
100
AcDbArc
50
0
51
90
0
LINE
5
104
100
AcDbEntity
8
0
100
AcDbLine
10
400.26875712874721
20
-121.54341459270935
30
1.2613959299301314e-05
11
400.26875712874727
21
-147.54341459270955
31
1.2613959299301314e-05
0
ARC
5
105
100
AcDbEntity
8
0
100
AcDbCircle
10
402.26875712874732
20
-147.54341459270952
30
1.2613959299301314e-05
40
2.0000000000000284
210
0
220
0
230
1
100
AcDbArc
50
180
51
270
0
LINE
5
106
100
AcDbEntity
8
0
100
AcDbLine
10
402.26875712874732
20
-149.54341459270952
30
1.2613959299301314e-05
11
542.84847991686138
21
-149.54341459270915
31
1.2613959299301314e-05
0
ARC
5
107
100
AcDbEntity
8
0
100
AcDbCircle
10
542.84847991686138
20
-147.54341459270913
30
1.2613959299301314e-05
40
2.0000000000000107
210
0
220
0
230
1
100
AcDbArc
50
-90
51
0
0
LINE
5
108
100
AcDbEntity
8
0
100
AcDbLine
10
544.84847991686138
20
-147.54341459270913
30
1.2613959299301314e-05
11
544.84847991686149
21
-113.54342126841726
31
1.2613959299301314e-05
0
LINE
5
109
100
AcDbEntity
8
0
100
AcDbLine
10
544.84847991686149
20
-113.54342126841726
30
1.2613959299301314e-05
11
547.84847991686195
21
-113.54342126841716
31
1.2613959299301314e-05
0
LINE
5
110
100
AcDbEntity
8
0
100
AcDbLine
10
547.84847991686195
20
-113.54342126841716
30
1.2613959299301314e-05
11
547.84847991686149
21
-93.543421268417163
31
1.2613959299301314e-05
0
LINE
5
111
100
AcDbEntity
8
0
100
AcDbLine
10
547.84847991686149
20
-93.543421268417163
30
1.2613959299301314e-05
11
544.84847991686149
21
-93.543421268417148
31
1.2613959299301314e-05
0
LINE
5
112
100
AcDbEntity
8
0
100
AcDbLine
10
544.84847991686149
20
-93.543421268417148
30
1.2613959299301314e-05
11
544.84847991686206
21
36.456579208411455
31
1.2613959299301314e-05
0
LINE
5
113
100
AcDbEntity
8
0
100
AcDbLine
10
544.84847991686206
20
36.456579208411455
30
1.2613959299301314e-05
11
547.84847991686195
21
36.456579208411384
31
1.2613959299301314e-05
0
LINE
5
114
100
AcDbEntity
8
0
100
AcDbLine
10
547.84847991686195
20
36.456579208411384
30
1.2613959299301314e-05
11
547.84847991686206
21
56.456579208411384
31
1.2613959299301314e-05
0
LINE
5
115
100
AcDbEntity
8
0
100
AcDbLine
10
547.84847991686206
20
56.456579208411384
30
1.2613959299301314e-05
11
544.84847991686206
21
56.456579208411419
31
1.2613959299301314e-05
0
LINE
5
116
100
AcDbEntity
8
0
100
AcDbLine
10
544.84847991686206
20
56.456579208411419
30
1.2613959299301314e-05
11
544.84847991686252
21
186.45657873158112
31
1.2613959299301314e-05
0
LINE
5
117
100
AcDbEntity
8
0
100
AcDbLine
10
544.84847991686252
20
186.45657873158112
30
1.2613959299301314e-05
11
547.8484799168624
21
186.45657873158112
31
1.2613959299301314e-05
0
LINE
5
118
100
AcDbEntity
8
0
100
AcDbLine
10
547.8484799168624
20
186.45657873158112
30
1.2613959299301314e-05
11
547.84847991686263
21
206.45657873158112
31
1.2613959299301314e-05
0
LINE
5
119
100
AcDbEntity
8
0
100
AcDbLine
10
547.84847991686263
20
206.45657873158112
30
1.2613959299301314e-05
11
544.84847991686263
21
206.45657873158112
31
1.2613959299301314e-05
0
LINE
5
120
100
AcDbEntity
8
0
100
AcDbLine
10
544.84847991686263
20
206.45657873158112
30
1.2613959299301314e-05
11
544.84847991686286
21
264.45657920841052
31
1.2613959299301314e-05
0
ARC
5
121
100
AcDbEntity
8
0
100
AcDbCircle
10
542.84847991686297
20
264.45657920841052
30
1.2613959299301314e-05
40
1.9999999999999574
210
0
220
0
230
1
100
AcDbArc
50
0
51
90
0
LINE
5
122
100
AcDbEntity
8
0
100
AcDbLine
10
542.84847991686297
20
266.45657920841057
30
1.2613959299301314e-05
11
450.8484799168628
21
266.45657920841126
31
1.2613959299301314e-05
0
LINE
5
123
100
AcDbEntity
8
0
100
AcDbLine
10
450.8484799168628
20
266.45657920841126
30
1.2613959299301314e-05
11
450.84847991686286
21
269.45657920841296
31
1.2613959299301314e-05
0
LINE
5
124
100
AcDbEntity
8
0
100
AcDbLine
10
450.84847991686286
20
269.45657920841296
30
1.2613959299301314e-05
11
430.84847991686274
21
269.45657920841325
31
1.2613959299301314e-05
0
LINE
5
125
100
AcDbEntity
8
0
100
AcDbLine
10
430.84847991686274
20
269.45657920841325
30
1.2613959299301314e-05
11
430.84847991686286
21
266.45657920841114
31
1.2613959299301314e-05
0
LINE
5
126
100
AcDbEntity
8
0
100
AcDbLine
10
430.84847991686286
20
266.45657920841114
30
1.2613959299301314e-05
11
328.84847991686092
21
266.45657920841097
31
1.2613959299301314e-05
0
LINE
5
127
100
AcDbEntity
8
0
100
AcDbLine
10
328.84847991686092
20
266.45657920841097
30
1.2613959299301314e-05
11
328.84847991686087
21
269.45657920841353
31
1.2613959299301314e-05
0
LINE
5
128
100
AcDbEntity
8
0
100
AcDbLine
10
328.84847991686087
20
269.45657920841353
30
1.2613959299301314e-05
11
308.84847991686081
21
269.45657920841381
31
1.2613959299301314e-05
0
LINE
5
129
100
AcDbEntity
8
0
100
AcDbLine
10
308.84847991686081
20
269.45657920841381
30
1.2613959299301314e-05
11
308.84847991686092
21
266.45657920841069
31
1.2613959299301314e-05
0
LINE
5
130
100
AcDbEntity
8
0
100
AcDbLine
10
308.84847991686092
20
266.45657920841069
30
1.2613959299301314e-05
11
216.84847991686084
21
266.4565792084104
31
1.2613959299301314e-05
0
ARC
5
131
100
AcDbEntity
8
0
100
AcDbCircle
10
216.84847991686084
20
264.4565792084104
30
1.2613959299301314e-05
40
2.0000000000000284
210
0
220
-0
230
1
100
AcDbArc
50
90
51
180
0
LINE
5
132
100
AcDbEntity
8
0
100
AcDbLine
10
214.84847991686084
20
264.4565792084104
30
1.2613959299301314e-05
11
214.84847991686058
21
206.45657873158211
31
1.2613959299301314e-05
0
LINE
5
133
100
AcDbEntity
8
0
100
AcDbLine
10
214.84847991686058
20
206.45657873158211
30
1.2613959299301314e-05
11
211.84847991686064
21
206.45657873158225
31
1.2613959299301314e-05
0
LINE
5
134
100
AcDbEntity
8
0
100
AcDbLine
10
211.84847991686064
20
206.45657873158225
30
1.2613959299301314e-05
11
211.84847991686055
21
186.45657873158254
31
1.2613959299301314e-05
0
LINE
5
135
100
AcDbEntity
8
0
100
AcDbLine
10
211.84847991686055
20
186.45657873158254
30
1.2613959299301314e-05
11
214.84847991686053
21
186.45657873158225
31
1.2613959299301314e-05
0
LINE
5
136
100
AcDbEntity
8
0
100
AcDbLine
10
214.84847991686053
20
186.45657873158225
30
1.2613959299301314e-05
11
214.84847991686001
21
56.456579208412627
31
1.2613959299301314e-05
0
LINE
5
137
100
AcDbEntity
8
0
100
AcDbLine
10
214.84847991686001
20
56.456579208412627
30
1.2613959299301314e-05
11
211.84847991686007
21
56.456579208412592
31
1.2613959299301314e-05
0
LINE
5
138
100
AcDbEntity
8
0
100
AcDbLine
10
211.84847991686007
20
56.456579208412592
30
1.2613959299301314e-05
11
211.84847991685999
21
36.456579208412769
31
1.2613959299301314e-05
0
LINE
5
139
100
AcDbEntity
8
0
100
AcDbLine
10
211.84847991685999
20
36.456579208412769
30
1.2613959299301314e-05
11
214.84847991685996
21
36.456579208412627
31
1.2613959299301314e-05
0
LINE
5
140
100
AcDbEntity
8
0
100
AcDbLine
10
214.84847991685996
20
36.456579208412627
30
1.2613959299301314e-05
11
214.84847991685945
21
-93.543421268415983
31
1.2613959299301314e-05
0
LINE
5
141
100
AcDbEntity
8
0
100
AcDbLine
10
214.84847991685945
20
-93.543421268415983
30
1.2613959299301314e-05
11
211.8484799168595
21
-93.543421268416168
31
1.2613959299301314e-05
0
LINE
5
142
100
AcDbEntity
8
0
100
AcDbLine
10
211.8484799168595
20
-93.543421268416168
30
1.2613959299301314e-05
11
211.84847991685942
21
-113.54342126841723
31
1.2613959299301314e-05
0
LINE
5
143
100
AcDbEntity
8
0
100
AcDbLine
10
211.84847991685942
20
-113.54342126841723
30
1.2613959299301314e-05
11
214.84847991685939
21
-113.54342126841607
31
1.2613959299301314e-05
0
LINE
5
144
100
AcDbEntity
8
0
100
AcDbLine
10
214.84847991685939
20
-113.54342126841607
30
1.2613959299301314e-05
11
214.84847991685925
21
-147.54341459271004
31
1.2613959299301314e-05
0
ARC
5
145
100
AcDbEntity
8
0
100
AcDbCircle
10
216.84847991685925
20
-147.54341459271006
30
1.2613959299301314e-05
40
1.9999999999999929
210
0
220
0
230
1
100
AcDbArc
50
180
51
270
0
LINE
5
146
100
AcDbEntity
8
0
100
AcDbLine
10
216.84847991685925
20
-149.54341459271006
30
1.2613959299301314e-05
11
357.46875712874811
21
-149.54341459270964
31
1.2613959299301314e-05
0
ARC
5
147
100
AcDbEntity
8
0
100
AcDbCircle
10
357.46875712874811
20
-147.54341459270964
30
1.2613959299301314e-05
40
1.9999999999999929
210
0
220
0
230
1
100
AcDbArc
50
-90
51
0
0
CIRCLE
5
148
100
AcDbEntity
8
0
100
AcDbCircle
10
-371.84847991686195
20
253.96396580217453
30
-1.2613958361404581e-05
40
1.5999999999999659
210
3.8163915436006027e-17
220
-6.6073424327438966e-23
230
-1
0
CIRCLE
5
149
100
AcDbEntity
8
0
100
AcDbCircle
10
-532.24615612501657
20
-65.543414592699463
30
-1.2613959421097259e-05
40
1.5999999999999659
210
3.8163915436006027e-17
220
-6.6073424327438966e-23
230
-1
0
CIRCLE
5
150
100
AcDbEntity
8
0
100
AcDbCircle
10
-227.49138293748496
20
-65.54341459269942
30
-1.2613959432727894e-05
40
1.5999999999999659
210
3.8163915436006027e-17
220
-6.6073424327438966e-23
230
-1
0
CIRCLE
5
151
100
AcDbEntity
8
0
100
AcDbCircle
10
-227.49138293748501
20
182.45658540730022
30
-1.2613958651130901e-05
40
1.5999999999999659
210
3.8163915436006027e-17
220
-6.6073424327438966e-23
230
-1
0
CIRCLE
5
152
100
AcDbEntity
8
0
100
AcDbCircle
10
-532.24615612501657
20
-49.543414592699442
30
-1.2613959421097262e-05
40
1.5999999999999659
210
3.8163915436006027e-17
220
-6.6073424327438966e-23
230
-1
0
CIRCLE
5
153
100
AcDbEntity
8
0
100
AcDbCircle
10
-227.49138293748496
20
-49.543414592699406
30
-1.2613959432727895e-05
40
1.5999999999999659
210
3.8163915436006027e-17
220
-6.6073424327438966e-23
230
-1
0
CIRCLE
5
154
100
AcDbEntity
8
0
100
AcDbCircle
10
-227.49138293748501
20
166.45658540730022
30
-1.2613958722185175e-05
40
1.5999999999999659
210
3.8163915436006027e-17
220
-6.6073424327438966e-23
230
-1
0
CIRCLE
5
155
100
AcDbEntity
8
0
100
AcDbCircle
10
-387.848479916862
20
253.96396580217467
30
-1.2613958360793958e-05
40
1.5999999999999659
210
3.8163915436006027e-17
220
-6.6073424327438966e-23
230
-1
0
CIRCLE
5
156
100
AcDbEntity
8
0
100
AcDbCircle
10
-532.24615612501736
20
182.45658540729974
30
-1.2613971997703699e-05
40
1.5999999999999659
210
3.8163915436006027e-17
220
-6.6073424327438966e-23
230
-1
0
CIRCLE
5
157
100
AcDbEntity
8
0
100
AcDbCircle
10
-532.24615612501736
20
166.4565854072998
30
-1.2613970505563952e-05
40
1.5999999999999659
210
3.8163915436006027e-17
220
-6.6073424327438966e-23
230
-1
0
ENDSEC
0
SECTION
2
OBJECTS
0
DICTIONARY
5
C
100
AcDbDictionary
3
ACAD_GROUP
350
D
3
ACAD_MLINESTYLE
350
17
0
DICTIONARY
5
D
100
AcDbDictionary
0
DICTIONARY
5
1A
330
C
100
AcDbDictionary
0
DICTIONARY
5
17
100
AcDbDictionary
0
ENDSEC
0
EOF
