0
SECTION
2
HEADER
9
$INSUNITS
70
4
9
$ACADVER
1
AC1014
9
$HANDSEED
5
FFFF
0
ENDSEC
0
SECTION
2
TABLES
0
TABLE
2
VPORT
5
8
100
AcDbSymbolTable
0
ENDTAB
0
TABLE
2
LTYPE
5
5
100
AcDbSymbolTable
0
LTYPE
5
14
100
AcDbSymbolTableRecord
100
AcDbLinetypeTableRecord
2
BYBLOCK
70
0
0
LTYPE
5
15
100
AcDbSymbolTableRecord
100
AcDbLinetypeTableRecord
2
BYLAYER
70
0
0
ENDTAB
0
TABLE
2
LAYER
5
2
100
AcDbSymbolTable
70
2
0
LAYER
5
50
100
AcDbSymbolTableRecord
100
AcDbLayerTableRecord
2
0
70
0
6
CONTINUOUS
0
ENDTAB
0
TABLE
2
STYLE
5
3
100
AcDbSymbolTable
70
1
0
STYLE
5
11
100
AcDbSymbolTableRecord
100
AcDbTextStyleTableRecord
2
STANDARD
70
0
0
ENDTAB
0
TABLE
2
VIEW
5
6
100
AcDbSymbolTable
70
0
0
ENDTAB
0
TABLE
2
UCS
5
7
100
AcDbSymbolTable
70
0
0
ENDTAB
0
TABLE
2
APPID
5
9
100
AcDbSymbolTable
70
2
0
APPID
5
12
100
AcDbSymbolTableRecord
100
AcDbRegAppTableRecord
2
ACAD
70
0
0
ENDTAB
0
TABLE
2
DIMSTYLE
5
A
100
AcDbSymbolTable
70
1
0
ENDTAB
0
TABLE
2
BLOCK_RECORD
5
1
100
AcDbSymbolTable
70
1
0
BLOCK_RECORD
5
1F
100
AcDbSymbolTableRecord
100
AcDbBlockTableRecord
2
*MODEL_SPACE
0
BLOCK_RECORD
5
1B
100
AcDbSymbolTableRecord
100
AcDbBlockTableRecord
2
*PAPER_SPACE
0
ENDTAB
0
ENDSEC
0
SECTION
2
BLOCKS
0
BLOCK
5
20
100
AcDbEntity
100
AcDbBlockBegin
2
*MODEL_SPACE
0
ENDBLK
5
21
100
AcDbEntity
100
AcDbBlockEnd
0
BLOCK
5
1C
100
AcDbEntity
100
AcDbBlockBegin
2
*PAPER_SPACE
0
ENDBLK
5
1D
100
AcDbEntity
100
AcDbBlockEnd
0
ENDSEC
0
SECTION
2
ENTITIES
0
LWPOLYLINE
5
100
100
AcDbEntity
8
0
100
AcDbPolyline
90
39
70
1
43
0.0
10
-491.88144683841011
20
148.45660710335113
42
0.41421356237309503
10
-489.88144683841017
20
146.4566071033511
10
-473.8814720663953
20
146.45660710335119
42
-0.41421356237309503
10
-471.8814720663953
20
144.45660710335116
10
-471.8814720663953
20
98.456607103351175
42
-0.41421356237308982
10
-473.8814720663953
20
96.456607103351189
10
-489.88144683840943
20
96.456607103351217
42
0.41421356237310025
10
-491.88144683840949
20
94.456607103351161
10
-491.88144683840824
20
-1.5433928966488608
42
0.41421356237308982
10
-489.88144683840829
20
-3.5433928966488182
10
-473.8814720663953
20
-3.5433928966487827
42
-0.4142135623730846
10
-471.88147206639536
20
-5.5433928966488111
10
-471.88147206639542
20
-51.543392896648825
42
-0.41421356237309503
10
-473.88147206639536
20
-53.543392896648818
10
-489.88144683840756
20
-53.543392896648783
42
0.41421356237310802
10
-491.88144683840761
20
-55.543392896648825
10
-491.88144683840704
20
-103.54339313506317
10
-493.88146160775477
20
-103.54339313506317
42
-0.41421356237308982
10
-491.88146160775477
20
-105.54339313506317
10
-491.8814616077542
20
-157.54339313506699
42
0.41421356237309243
10
-489.88146160775415
20
-159.54339313506699
10
-318.88145945240194
20
-159.54339313506668
42
0.41421356237310542
10
-316.88145945240188
20
-157.54339313506665
10
-316.88145945240245
20
-113.54339313506102
10
-319.88145945240251
20
-113.54339313506105
10
-319.88145945240268
20
-93.543393135061052
10
-316.88145945240268
20
-93.543393135061024
10
-316.88145945240427
20
36.456607341767509
10
-319.88145945240427
20
36.456607341767473
10
-319.88145945240456
20
56.456607341767473
10
-316.88145945240456
20
56.456607341767509
10
-316.88145945240615
20
186.45660686493716
10
-319.88145945240615
20
186.4566068649371
10
-319.88145945240638
20
206.4566068649371
10
-316.88145945240638
20
206.45660686493716
10
-316.88145945240711
20
264.45660734176545
42
0.41421356237310542
10
-318.88145945240717
20
266.4566073417655
10
-489.88144683841165
20
266.45660734176334
42
0.41421356237309503
10
-491.88144683841159
20
264.45660734176323
0
CIRCLE
5
101
100
AcDbEntity
8
0
100
AcDbCircle
10
-332.67435267119208
20
-65.543386459343822
30
1.7763568394002505e-13
40
1.5999999999999659
210
8.5907879544275991e-17
220
0
230
1
0
CIRCLE
5
102
100
AcDbEntity
8
0
100
AcDbCircle
10
-332.67435267118975
20
182.45661354065558
30
-3.5527136788005009e-14
40
1.5999999999999659
210
8.5907879544275991e-17
220
0
230
1
0
CIRCLE
5
103
100
AcDbEntity
8
0
100
AcDbCircle
10
-332.67435267118992
20
166.4566135406555
30
-3.5527136788005009e-14
40
1.5999999999999659
210
8.5907879544275991e-17
220
0
230
1
0
CIRCLE
5
104
100
AcDbEntity
8
0
100
AcDbCircle
10
-332.67435267119197
20
-49.54338645934385
30
1.7763568394002505e-13
40
1.6000000000000369
210
8.5907879544276016e-17
220
0
230
1
0
CIRCLE
5
105
100
AcDbEntity
8
0
100
AcDbCircle
10
-481.88145945239938
20
-103.54339313506307
30
2.1316282072803006e-13
40
2.7000000000000055
210
1.1101999959167421e-16
220
1.577721810442024e-30
230
1
0
CIRCLE
5
106
100
AcDbEntity
8
0
100
AcDbCircle
10
-481.88145945240564
20
46.456607341765483
30
7.1054273576010019e-14
40
2.7000000000000002
210
1.1101999959167421e-16
220
1.577721810442024e-30
230
1
0
CIRCLE
5
107
100
AcDbEntity
8
0
100
AcDbCircle
10
-481.88145945241195
20
196.45660686493511
30
-3.5527136788005009e-14
40
2.6999999999999802
210
1.1101999959167421e-16
220
1.577721810442024e-30
230
1
0
ENDSEC
0
SECTION
2
OBJECTS
0
DICTIONARY
5
C
100
AcDbDictionary
3
ACAD_GROUP
350
D
3
ACAD_MLINESTYLE
350
17
0
DICTIONARY
5
D
100
AcDbDictionary
0
DICTIONARY
5
1A
330
C
100
AcDbDictionary
0
DICTIONARY
5
17
100
AcDbDictionary
0
ENDSEC
0
EOF
